<svg width="800" height="450" viewBox="0 0 800 450" fill="none" xmlns="http://www.w3.org/2000/svg">
  <!-- Background -->
  <rect width="800" height="450" fill="#17171a"/>
  
  <!-- Header -->
  <rect width="800" height="60" fill="#232329"/>
  <rect x="20" y="15" width="120" height="30" rx="4" fill="#6ee7ff"/>
  <text x="80" y="35" text-anchor="middle" fill="#0e0e10" font-family="Arial, sans-serif" font-size="14" font-weight="bold">KHESED-TEK</text>
  
  <!-- Navigation -->
  <rect x="160" y="20" width="60" height="20" rx="10" fill="#2a2a30"/>
  <rect x="240" y="20" width="60" height="20" rx="10" fill="#2a2a30"/>
  <rect x="320" y="20" width="60" height="20" rx="10" fill="#2a2a30"/>
  
  <!-- User menu -->
  <circle cx="750" r="15" cy="30" fill="#8b5cf6"/>
  
  <!-- Sidebar -->
  <rect x="0" y="60" width="200" height="390" fill="#1a1a1e"/>
  
  <!-- Sidebar items -->
  <rect x="20" y="80" width="160" height="35" rx="4" fill="#6ee7ff" fill-opacity="0.1"/>
  <circle cx="35" cy="97" r="8" fill="#6ee7ff"/>
  <text x="55" y="102" fill="#e7e7ea" font-family="Arial, sans-serif" font-size="12">Dashboard</text>
  
  <rect x="20" y="125" width="160" height="35" rx="4" fill="#232329"/>
  <circle cx="35" cy="142" r="8" fill="#6ee7ff" fill-opacity="0.5"/>
  <text x="55" y="147" fill="#a0a0a0" font-family="Arial, sans-serif" font-size="12">Miembros</text>
  
  <rect x="20" y="170" width="160" height="35" rx="4" fill="#232329"/>
  <circle cx="35" cy="187" r="8" fill="#6ee7ff" fill-opacity="0.5"/>
  <text x="55" y="192" fill="#a0a0a0" font-family="Arial, sans-serif" font-size="12">Donaciones</text>
  
  <rect x="20" y="215" width="160" height="35" rx="4" fill="#232329"/>
  <circle cx="35" cy="232" r="8" fill="#6ee7ff" fill-opacity="0.5"/>
  <text x="55" y="237" fill="#a0a0a0" font-family="Arial, sans-serif" font-size="12">Eventos</text>
  
  <!-- Main content area -->
  <rect x="200" y="60" width="600" height="390" fill="#0e0e10"/>
  
  <!-- Header content -->
  <text x="220" y="100" fill="#e7e7ea" font-family="Arial, sans-serif" font-size="24" font-weight="bold">Panel de Control</text>
  <text x="220" y="125" fill="#a0a0a0" font-family="Arial, sans-serif" font-size="14">Vista general de tu iglesia</text>
  
  <!-- Stats cards -->
  <rect x="220" y="150" width="170" height="100" rx="8" fill="#232329"/>
  <text x="240" y="175" fill="#6ee7ff" font-family="Arial, sans-serif" font-size="14">Miembros Activos</text>
  <text x="240" y="200" fill="#e7e7ea" font-family="Arial, sans-serif" font-size="32" font-weight="bold">1,247</text>
  <text x="240" y="220" fill="#4ade80" font-family="Arial, sans-serif" font-size="12">+12% este mes</text>
  
  <rect x="410" y="150" width="170" height="100" rx="8" fill="#232329"/>
  <text x="430" y="175" fill="#8b5cf6" font-family="Arial, sans-serif" font-size="14">Donaciones Mes</text>
  <text x="430" y="200" fill="#e7e7ea" font-family="Arial, sans-serif" font-size="32" font-weight="bold">$18,542</text>
  <text x="430" y="220" fill="#4ade80" font-family="Arial, sans-serif" font-size="12">+8% vs anterior</text>
  
  <rect x="600" y="150" width="170" height="100" rx="8" fill="#232329"/>
  <text x="620" y="175" fill="#f59e0b" font-family="Arial, sans-serif" font-size="14">Eventos Próximos</text>
  <text x="620" y="200" fill="#e7e7ea" font-family="Arial, sans-serif" font-size="32" font-weight="bold">7</text>
  <text x="620" y="220" fill="#6ee7ff" font-family="Arial, sans-serif" font-size="12">Esta semana</text>
  
  <!-- Chart area -->
  <rect x="220" y="270" width="550" height="160" rx="8" fill="#232329"/>
  <text x="240" y="295" fill="#e7e7ea" font-family="Arial, sans-serif" font-size="16" font-weight="bold">Crecimiento Mensual</text>
  
  <!-- Simple chart representation -->
  <rect x="250" y="320" width="20" height="60" fill="#6ee7ff"/>
  <rect x="280" y="340" width="20" height="40" fill="#6ee7ff"/>
  <rect x="310" y="310" width="20" height="70" fill="#6ee7ff"/>
  <rect x="340" y="325" width="20" height="55" fill="#6ee7ff"/>
  <rect x="370" y="305" width="20" height="75" fill="#8b5cf6"/>
  <rect x="400" y="315" width="20" height="65" fill="#8b5cf6"/>
  <rect x="430" y="300" width="20" height="80" fill="#8b5cf6"/>
  
  <!-- Chart labels -->
  <text x="260" y="395" fill="#a0a0a0" font-family="Arial, sans-serif" font-size="10">Ene</text>
  <text x="290" y="395" fill="#a0a0a0" font-family="Arial, sans-serif" font-size="10">Feb</text>
  <text x="320" y="395" fill="#a0a0a0" font-family="Arial, sans-serif" font-size="10">Mar</text>
  <text x="350" y="395" fill="#a0a0a0" font-family="Arial, sans-serif" font-size="10">Abr</text>
  <text x="380" y="395" fill="#a0a0a0" font-family="Arial, sans-serif" font-size="10">May</text>
  <text x="410" y="395" fill="#a0a0a0" font-family="Arial, sans-serif" font-size="10">Jun</text>
  <text x="440" y="395" fill="#a0a0a0" font-family="Arial, sans-serif" font-size="10">Jul</text>
</svg>