<svg width="800" height="450" viewBox="0 0 800 450" fill="none" xmlns="http://www.w3.org/2000/svg">
  <!-- Background -->
  <rect width="800" height="450" fill="#17171a"/>
  
  <!-- Header -->
  <rect width="800" height="60" fill="#232329"/>
  <rect x="20" y="15" width="120" height="30" rx="4" fill="#6ee7ff"/>
  <text x="80" y="35" text-anchor="middle" fill="#0e0e10" font-family="Arial, sans-serif" font-size="14" font-weight="bold">KHESED-TEK</text>
  
  <!-- Sidebar -->
  <rect x="0" y="60" width="200" height="390" fill="#1a1a1e"/>
  
  <!-- Members selected -->
  <rect x="20" y="125" width="160" height="35" rx="4" fill="#6ee7ff" fill-opacity="0.1"/>
  <circle cx="35" cy="142" r="8" fill="#6ee7ff"/>
  <text x="55" y="147" fill="#e7e7ea" font-family="Arial, sans-serif" font-size="12">Miembros</text>
  
  <!-- Main content -->
  <rect x="200" y="60" width="600" height="390" fill="#0e0e10"/>
  
  <!-- Header -->
  <text x="220" y="100" fill="#e7e7ea" font-family="Arial, sans-serif" font-size="24" font-weight="bold">Gestión de Miembros</text>
  
  <!-- Search and filters -->
  <rect x="220" y="120" width="300" height="35" rx="6" fill="#232329" stroke="#6ee7ff" stroke-width="1"/>
  <text x="235" y="142" fill="#a0a0a0" font-family="Arial, sans-serif" font-size="12">Buscar miembros...</text>
  
  <rect x="540" y="120" width="100" height="35" rx="6" fill="#6ee7ff"/>
  <text x="590" y="142" text-anchor="middle" fill="#0e0e10" font-family="Arial, sans-serif" font-size="12" font-weight="bold">+ Agregar</text>
  
  <rect x="660" y="120" width="100" height="35" rx="6" fill="#232329"/>
  <text x="710" y="142" text-anchor="middle" fill="#e7e7ea" font-family="Arial, sans-serif" font-size="12">Filtros</text>
  
  <!-- Stats row -->
  <rect x="220" y="170" width="120" height="60" rx="6" fill="#232329"/>
  <text x="235" y="190" fill="#6ee7ff" font-family="Arial, sans-serif" font-size="12">Total Miembros</text>
  <text x="235" y="210" fill="#e7e7ea" font-family="Arial, sans-serif" font-size="24" font-weight="bold">1,247</text>
  
  <rect x="360" y="170" width="120" height="60" rx="6" fill="#232329"/>
  <text x="375" y="190" fill="#4ade80" font-family="Arial, sans-serif" font-size="12">Activos</text>
  <text x="375" y="210" fill="#e7e7ea" font-family="Arial, sans-serif" font-size="24" font-weight="bold">1,156</text>
  
  <rect x="500" y="170" width="120" height="60" rx="6" fill="#232329"/>
  <text x="515" y="190" fill="#f59e0b" font-family="Arial, sans-serif" font-size="12">Nuevos (30d)</text>
  <text x="515" y="210" fill="#e7e7ea" font-family="Arial, sans-serif" font-size="24" font-weight="bold">47</text>
  
  <!-- Table header -->
  <rect x="220" y="250" width="550" height="40" fill="#232329"/>
  <text x="235" y="275" fill="#e7e7ea" font-family="Arial, sans-serif" font-size="12" font-weight="bold">Nombre</text>
  <text x="385" y="275" fill="#e7e7ea" font-family="Arial, sans-serif" font-size="12" font-weight="bold">Email</text>
  <text x="535" y="275" fill="#e7e7ea" font-family="Arial, sans-serif" font-size="12" font-weight="bold">Teléfono</text>
  <text x="685" y="275" fill="#e7e7ea" font-family="Arial, sans-serif" font-size="12" font-weight="bold">Estado</text>
  
  <!-- Table rows -->
  <rect x="220" y="290" width="550" height="45" fill="#1a1a1e"/>
  <circle cx="245" cy="312" r="12" fill="#6ee7ff"/>
  <text x="270" y="310" fill="#e7e7ea" font-family="Arial, sans-serif" font-size="12">María González</text>
  <text x="270" y="325" fill="#a0a0a0" font-family="Arial, sans-serif" font-size="10">Líder de Grupo</text>
  <text x="385" y="317" fill="#a0a0a0" font-family="Arial, sans-serif" font-size="11">maria.g@email.com</text>
  <text x="535" y="317" fill="#a0a0a0" font-family="Arial, sans-serif" font-size="11">+57 300 123 4567</text>
  <rect x="685" y="305" width="50" height="20" rx="10" fill="#4ade80" fill-opacity="0.2"/>
  <text x="710" y="318" text-anchor="middle" fill="#4ade80" font-family="Arial, sans-serif" font-size="10">Activo</text>
  
  <rect x="220" y="335" width="550" height="45" fill="#232329"/>
  <circle cx="245" cy="357" r="12" fill="#8b5cf6"/>
  <text x="270" y="355" fill="#e7e7ea" font-family="Arial, sans-serif" font-size="12">Carlos Rodríguez</text>
  <text x="270" y="370" fill="#a0a0a0" font-family="Arial, sans-serif" font-size="10">Pastor Asociado</text>
  <text x="385" y="362" fill="#a0a0a0" font-family="Arial, sans-serif" font-size="11">carlos.r@email.com</text>
  <text x="535" y="362" fill="#a0a0a0" font-family="Arial, sans-serif" font-size="11">+57 301 987 6543</text>
  <rect x="685" y="350" width="50" height="20" rx="10" fill="#4ade80" fill-opacity="0.2"/>
  <text x="710" y="363" text-anchor="middle" fill="#4ade80" font-family="Arial, sans-serif" font-size="10">Activo</text>
  
  <rect x="220" y="380" width="550" height="45" fill="#1a1a1e"/>
  <circle cx="245" cy="402" r="12" fill="#f59e0b"/>
  <text x="270" y="400" fill="#e7e7ea" font-family="Arial, sans-serif" font-size="12">Ana López</text>
  <text x="270" y="415" fill="#a0a0a0" font-family="Arial, sans-serif" font-size="10">Miembro</text>
  <text x="385" y="407" fill="#a0a0a0" font-family="Arial, sans-serif" font-size="11">ana.l@email.com</text>
  <text x="535" y="407" fill="#a0a0a0" font-family="Arial, sans-serif" font-size="11">+57 302 456 7890</text>
  <rect x="685" y="395" width="50" height="20" rx="10" fill="#f59e0b" fill-opacity="0.2"/>
  <text x="710" y="408" text-anchor="middle" fill="#f59e0b" font-family="Arial, sans-serif" font-size="10">Nuevo</text>
</svg>