<svg width="800" height="450" viewBox="0 0 800 450" fill="none" xmlns="http://www.w3.org/2000/svg">
  <!-- Background -->
  <rect width="800" height="450" fill="#17171a"/>
  
  <!-- Header -->
  <rect width="800" height="60" fill="#232329"/>
  <rect x="20" y="15" width="120" height="30" rx="4" fill="#6ee7ff"/>
  <text x="80" y="35" text-anchor="middle" fill="#0e0e10" font-family="Arial, sans-serif" font-size="14" font-weight="bold">KHESED-TEK</text>
  
  <!-- Sidebar -->
  <rect x="0" y="60" width="200" height="390" fill="#1a1a1e"/>
  
  <!-- Donations selected -->
  <rect x="20" y="170" width="160" height="35" rx="4" fill="#6ee7ff" fill-opacity="0.1"/>
  <circle cx="35" cy="187" r="8" fill="#6ee7ff"/>
  <text x="55" y="192" fill="#e7e7ea" font-family="Arial, sans-serif" font-size="12">Donaciones</text>
  
  <!-- Main content -->
  <rect x="200" y="60" width="600" height="390" fill="#0e0e10"/>
  
  <!-- Header -->
  <text x="220" y="100" fill="#e7e7ea" font-family="Arial, sans-serif" font-size="24" font-weight="bold">Sistema de Donaciones</text>
  
  <!-- Action buttons -->
  <rect x="220" y="120" width="120" height="35" rx="6" fill="#4ade80"/>
  <text x="280" y="142" text-anchor="middle" fill="#0e0e10" font-family="Arial, sans-serif" font-size="12" font-weight="bold">+ Nueva</text>
  
  <rect x="360" y="120" width="100" height="35" rx="6" fill="#232329"/>
  <text x="410" y="142" text-anchor="middle" fill="#e7e7ea" font-family="Arial, sans-serif" font-size="12">Exportar</text>
  
  <rect x="480" y="120" width="100" height="35" rx="6" fill="#232329"/>
  <text x="530" y="142" text-anchor="middle" fill="#e7e7ea" font-family="Arial, sans-serif" font-size="12">Reportes</text>
  
  <!-- Stats cards -->
  <rect x="220" y="170" width="170" height="100" rx="8" fill="#232329"/>
  <text x="240" y="195" fill="#4ade80" font-family="Arial, sans-serif" font-size="14">Este Mes</text>
  <text x="240" y="220" fill="#e7e7ea" font-family="Arial, sans-serif" font-size="32" font-weight="bold">$18,542</text>
  <text x="240" y="240" fill="#4ade80" font-family="Arial, sans-serif" font-size="12">+15% vs anterior</text>
  <text x="240" y="255" fill="#a0a0a0" font-family="Arial, sans-serif" font-size="11">127 donaciones</text>
  
  <rect x="410" y="170" width="170" height="100" rx="8" fill="#232329"/>
  <text x="430" y="195" fill="#6ee7ff" font-family="Arial, sans-serif" font-size="14">Promedio</text>
  <text x="430" y="220" fill="#e7e7ea" font-family="Arial, sans-serif" font-size="32" font-weight="bold">$146</text>
  <text x="430" y="240" fill="#6ee7ff" font-family="Arial, sans-serif" font-size="12">Por donación</text>
  <text x="430" y="255" fill="#a0a0a0" font-family="Arial, sans-serif" font-size="11">Últimos 30 días</text>
  
  <rect x="600" y="170" width="170" height="100" rx="8" fill="#232329"/>
  <text x="620" y="195" fill="#8b5cf6" font-family="Arial, sans-serif" font-size="14">Objetivos</text>
  <text x="620" y="220" fill="#e7e7ea" font-family="Arial, sans-serif" font-size="32" font-weight="bold">87%</text>
  <text x="620" y="240" fill="#8b5cf6" font-family="Arial, sans-serif" font-size="12">Meta mensual</text>
  <text x="620" y="255" fill="#a0a0a0" font-family="Arial, sans-serif" font-size="11">$21,300 objetivo</text>
  
  <!-- Recent donations table -->
  <text x="220" y="305" fill="#e7e7ea" font-family="Arial, sans-serif" font-size="16" font-weight="bold">Donaciones Recientes</text>
  
  <!-- Table header -->
  <rect x="220" y="320" width="550" height="35" fill="#232329"/>
  <text x="235" y="342" fill="#e7e7ea" font-family="Arial, sans-serif" font-size="12" font-weight="bold">Fecha</text>
  <text x="325" y="342" fill="#e7e7ea" font-family="Arial, sans-serif" font-size="12" font-weight="bold">Donante</text>
  <text x="475" y="342" fill="#e7e7ea" font-family="Arial, sans-serif" font-size="12" font-weight="bold">Cantidad</text>
  <text x="575" y="342" fill="#e7e7ea" font-family="Arial, sans-serif" font-size="12" font-weight="bold">Método</text>
  <text x="685" y="342" fill="#e7e7ea" font-family="Arial, sans-serif" font-size="12" font-weight="bold">Estado</text>
  
  <!-- Donation rows -->
  <rect x="220" y="355" width="550" height="35" fill="#1a1a1e"/>
  <text x="235" y="377" fill="#a0a0a0" font-family="Arial, sans-serif" font-size="11">Nov 04</text>
  <text x="325" y="377" fill="#e7e7ea" font-family="Arial, sans-serif" font-size="11">María González</text>
  <text x="475" y="377" fill="#4ade80" font-family="Arial, sans-serif" font-size="11" font-weight="bold">$250.00</text>
  <text x="575" y="377" fill="#a0a0a0" font-family="Arial, sans-serif" font-size="11">Tarjeta</text>
  <rect x="675" y="365" width="60" height="18" rx="9" fill="#4ade80" fill-opacity="0.2"/>
  <text x="705" y="377" text-anchor="middle" fill="#4ade80" font-family="Arial, sans-serif" font-size="9">Exitosa</text>
  
  <rect x="220" y="390" width="550" height="35" fill="#232329"/>
  <text x="235" y="412" fill="#a0a0a0" font-family="Arial, sans-serif" font-size="11">Nov 03</text>
  <text x="325" y="412" fill="#e7e7ea" font-family="Arial, sans-serif" font-size="11">Carlos Rodríguez</text>
  <text x="475" y="412" fill="#4ade80" font-family="Arial, sans-serif" font-size="11" font-weight="bold">$500.00</text>
  <text x="575" y="412" fill="#a0a0a0" font-family="Arial, sans-serif" font-size="11">Transferencia</text>
  <rect x="675" y="400" width="60" height="18" rx="9" fill="#4ade80" fill-opacity="0.2"/>
  <text x="705" y="412" text-anchor="middle" fill="#4ade80" font-family="Arial, sans-serif" font-size="9">Exitosa</text>
  
  <!-- Payment methods icons -->
  <rect x="650" y="120" width="30" height="20" rx="4" fill="#6ee7ff" fill-opacity="0.2"/>
  <text x="665" y="133" text-anchor="middle" fill="#6ee7ff" font-family="Arial, sans-serif" font-size="8">💳</text>
  
  <rect x="690" y="120" width="30" height="20" rx="4" fill="#4ade80" fill-opacity="0.2"/>
  <text x="705" y="133" text-anchor="middle" fill="#4ade80" font-family="Arial, sans-serif" font-size="8">🏦</text>
  
  <rect x="730" y="120" width="30" height="20" rx="4" fill="#8b5cf6" fill-opacity="0.2"/>
  <text x="745" y="133" text-anchor="middle" fill="#8b5cf6" font-family="Arial, sans-serif" font-size="8">📱</text>
</svg>