<svg width="800" height="450" viewBox="0 0 800 450" fill="none" xmlns="http://www.w3.org/2000/svg">
  <!-- Background -->
  <rect width="800" height="450" fill="#17171a"/>
  
  <!-- Header -->
  <rect width="800" height="60" fill="#232329"/>
  <rect x="20" y="15" width="120" height="30" rx="4" fill="#6ee7ff"/>
  <text x="80" y="35" text-anchor="middle" fill="#0e0e10" font-family="Arial, sans-serif" font-size="14" font-weight="bold">KHESED-TEK</text>
  
  <!-- Sidebar -->
  <rect x="0" y="60" width="200" height="390" fill="#1a1a1e"/>
  
  <!-- Volunteers selected -->
  <rect x="20" y="215" width="160" height="35" rx="4" fill="#4ade80" fill-opacity="0.1"/>
  <circle cx="35" cy="232" r="8" fill="#4ade80"/>
  <text x="55" y="237" fill="#e7e7ea" font-family="Arial, sans-serif" font-size="12">Voluntarios</text>
  
  <!-- Main content -->
  <rect x="200" y="60" width="600" height="390" fill="#0e0e10"/>
  
  <!-- Header -->
  <text x="220" y="100" fill="#e7e7ea" font-family="Arial, sans-serif" font-size="24" font-weight="bold">Gesti贸n de Voluntarios</text>
  <text x="220" y="125" fill="#a0a0a0" font-family="Arial, sans-serif" font-size="14">Coordina y organiza tu equipo de servicio</text>
  
  <!-- Action buttons -->
  <rect x="220" y="145" width="120" height="35" rx="6" fill="#4ade80"/>
  <text x="280" y="167" text-anchor="middle" fill="#0e0e10" font-family="Arial, sans-serif" font-size="12" font-weight="bold">+ Voluntario</text>
  
  <rect x="360" y="145" width="100" height="35" rx="6" fill="#232329"/>
  <text x="410" y="167" text-anchor="middle" fill="#e7e7ea" font-family="Arial, sans-serif" font-size="12">Horarios</text>
  
  <rect x="480" y="145" width="100" height="35" rx="6" fill="#232329"/>
  <text x="530" y="167" text-anchor="middle" fill="#e7e7ea" font-family="Arial, sans-serif" font-size="12">Ministerios</text>
  
  <!-- Stats cards -->
  <rect x="220" y="195" width="170" height="100" rx="8" fill="#232329"/>
  <text x="240" y="220" fill="#4ade80" font-family="Arial, sans-serif" font-size="14">Voluntarios Activos</text>
  <text x="240" y="245" fill="#e7e7ea" font-family="Arial, sans-serif" font-size="32" font-weight="bold">127</text>
  <text x="240" y="265" fill="#4ade80" font-family="Arial, sans-serif" font-size="12">En 15 ministerios</text>
  <text x="240" y="280" fill="#a0a0a0" font-family="Arial, sans-serif" font-size="11">+8 nuevos este mes</text>
  
  <rect x="410" y="195" width="170" height="100" rx="8" fill="#232329"/>
  <text x="430" y="220" fill="#6ee7ff" font-family="Arial, sans-serif" font-size="14">Horas Servidas</text>
  <text x="430" y="245" fill="#e7e7ea" font-family="Arial, sans-serif" font-size="32" font-weight="bold">2,847</text>
  <text x="430" y="265" fill="#6ee7ff" font-family="Arial, sans-serif" font-size="12">Este mes</text>
  <text x="430" y="280" fill="#a0a0a0" font-family="Arial, sans-serif" font-size="11">Promedio: 22h/voluntario</text>
  
  <rect x="600" y="195" width="170" height="100" rx="8" fill="#232329"/>
  <text x="620" y="220" fill="#f59e0b" font-family="Arial, sans-serif" font-size="14">Pr贸ximos Eventos</text>
  <text x="620" y="245" fill="#e7e7ea" font-family="Arial, sans-serif" font-size="32" font-weight="bold">12</text>
  <text x="620" y="265" fill="#f59e0b" font-family="Arial, sans-serif" font-size="12">Necesitan voluntarios</text>
  <text x="620" y="280" fill="#a0a0a0" font-family="Arial, sans-serif" font-size="11">45 posiciones abiertas</text>
  
  <!-- Volunteer schedule grid -->
  <text x="220" y="330" fill="#e7e7ea" font-family="Arial, sans-serif" font-size="16" font-weight="bold">Cronograma Semanal</text>
  
  <!-- Days of week -->
  <rect x="220" y="345" width="90" height="30" fill="#232329"/>
  <text x="265" y="365" text-anchor="middle" fill="#e7e7ea" font-family="Arial, sans-serif" font-size="11" font-weight="bold">Domingo</text>
  
  <rect x="320" y="345" width="90" height="30" fill="#232329"/>
  <text x="365" y="365" text-anchor="middle" fill="#e7e7ea" font-family="Arial, sans-serif" font-size="11" font-weight="bold">Mi茅rcoles</text>
  
  <rect x="420" y="345" width="90" height="30" fill="#232329"/>
  <text x="465" y="365" text-anchor="middle" fill="#e7e7ea" font-family="Arial, sans-serif" font-size="11" font-weight="bold">S谩bado</text>
  
  <!-- Time slots with volunteer assignments -->
  <rect x="220" y="380" width="90" height="40" fill="#4ade80" fill-opacity="0.2"/>
  <text x="235" y="395" fill="#4ade80" font-family="Arial, sans-serif" font-size="10">Recepci贸n</text>
  <text x="235" y="408" fill="#e7e7ea" font-family="Arial, sans-serif" font-size="9">Mar铆a G. - Ana L.</text>
  
  <rect x="220" y="425" width="90" height="20" fill="#6ee7ff" fill-opacity="0.2"/>
  <text x="235" y="438" fill="#6ee7ff" font-family="Arial, sans-serif" font-size="9">Sonido: Carlos R.</text>
  
  <rect x="320" y="380" width="90" height="40" fill="#8b5cf6" fill-opacity="0.2"/>
  <text x="335" y="395" fill="#8b5cf6" font-family="Arial, sans-serif" font-size="10">Estudio B铆blico</text>
  <text x="335" y="408" fill="#e7e7ea" font-family="Arial, sans-serif" font-size="9">Pastor David</text>
  
  <rect x="420" y="380" width="90" height="40" fill="#f59e0b" fill-opacity="0.2"/>
  <text x="435" y="395" fill="#f59e0b" font-family="Arial, sans-serif" font-size="10">Limpieza</text>
  <text x="435" y="408" fill="#e7e7ea" font-family="Arial, sans-serif" font-size="9">Equipo J贸venes</text>
  
  <!-- Ministry icons -->
  <rect x="650" y="145" width="30" height="20" rx="4" fill="#4ade80" fill-opacity="0.2"/>
  <text x="665" y="158" text-anchor="middle" fill="#4ade80" font-family="Arial, sans-serif" font-size="8"></text>
  
  <rect x="690" y="145" width="30" height="20" rx="4" fill="#6ee7ff" fill-opacity="0.2"/>
  <text x="705" y="158" text-anchor="middle" fill="#6ee7ff" font-family="Arial, sans-serif" font-size="8"></text>
  
  <rect x="730" y="145" width="30" height="20" rx="4" fill="#8b5cf6" fill-opacity="0.2"/>
  <text x="745" y="158" text-anchor="middle" fill="#8b5cf6" font-family="Arial, sans-serif" font-size="8"></text>
</svg>