<svg width="800" height="450" viewBox="0 0 800 450" fill="none" xmlns="http://www.w3.org/2000/svg">
  <!-- Background -->
  <rect width="800" height="450" fill="#0f0f23"/>
  
  <!-- Header -->
  <rect width="800" height="60" fill="#1a1a40"/>
  <rect x="20" y="15" width="40" height="30" rx="8" fill="#6366f1"/>
  <text x="40" y="35" text-anchor="middle" fill="#ffffff" font-family="Arial, sans-serif" font-size="14" font-weight="bold">K</text>
  <text x="80" y="35" fill="#e2e8f0" font-family="Arial, sans-serif" font-size="18" font-weight="bold">Khesed-tek</text>
  <text x="200" y="28" fill="#94a3b8" font-family="Arial, sans-serif" font-size="12">Church Management Systems</text>
  
  <!-- User info -->
  <circle cx="720" cy="30" r="15" fill="#3b82f6"/>
  <text x="720" y="35" text-anchor="middle" fill="#ffffff" font-family="Arial, sans-serif" font-size="12" font-weight="bold">MG</text>
  <text x="650" y="25" fill="#e2e8f0" font-family="Arial, sans-serif" font-size="12">María González</text>
  <text x="650" y="40" fill="#64748b" font-family="Arial, sans-serif" font-size="10">Administrador de Iglesia</text>
  
  <!-- Sidebar -->
  <rect x="0" y="60" width="200" height="390" fill="#1e1e3f"/>
  
  <!-- Sidebar items -->
  <circle cx="35" cy="97" r="8" fill="#64748b"/>
  <text x="55" y="102" fill="#94a3b8" font-family="Arial, sans-serif" font-size="12">Panel de Control</text>
  
  <rect x="20" y="120" width="160" height="35" rx="4" fill="#10b981" fill-opacity="0.2"/>
  <circle cx="35" cy="137" r="8" fill="#10b981"/>
  <text x="55" y="142" fill="#e2e8f0" font-family="Arial, sans-serif" font-size="12">Miembros</text>
  
  <circle cx="35" cy="177" r="8" fill="#64748b"/>
  <text x="55" y="182" fill="#94a3b8" font-family="Arial, sans-serif" font-size="12">Voluntarios</text>
  
  <circle cx="35" cy="217" r="8" fill="#64748b"/>
  <text x="55" y="222" fill="#94a3b8" font-family="Arial, sans-serif" font-size="12">Registro</text>
  
  <circle cx="35" cy="257" r="8" fill="#64748b"/>
  <text x="55" y="262" fill="#94a3b8" font-family="Arial, sans-serif" font-size="12">Seguimiento</text>
  
  <!-- Main content -->
  <rect x="200" y="60" width="600" height="390" fill="#0f0f23"/>
  
  <!-- Page title and search -->
  <text x="220" y="100" fill="#e2e8f0" font-family="Arial, sans-serif" font-size="24" font-weight="bold">Miembros</text>
  <rect x="220" y="110" width="400" height="30" rx="15" fill="#1e1e3f" stroke="#374151" stroke-width="1"/>
  <text x="240" y="130" fill="#64748b" font-family="Arial, sans-serif" font-size="12">🔍 Buscar por nombre, email o teléfono...</text>
  
  <!-- Action buttons -->
  <rect x="640" y="110" width="120" height="30" rx="15" fill="#10b981"/>
  <text x="700" y="130" text-anchor="middle" fill="#ffffff" font-family="Arial, sans-serif" font-size="11" font-weight="bold">+ Nuevo Miembro</text>
  
  <!-- Filters -->
  <text x="220" y="170" fill="#e2e8f0" font-family="Arial, sans-serif" font-size="14" font-weight="bold">Filtros:</text>
  <rect x="280" y="155" width="80" height="25" rx="12" fill="#3b82f6"/>
  <text x="320" y="170" text-anchor="middle" fill="#ffffff" font-family="Arial, sans-serif" font-size="10">Todos</text>
  <rect x="370" y="155" width="80" height="25" rx="12" fill="#1e1e3f" stroke="#374151" stroke-width="1"/>
  <text x="410" y="170" text-anchor="middle" fill="#94a3b8" font-family="Arial, sans-serif" font-size="10">Activos</text>
  <rect x="460" y="155" width="80" height="25" rx="12" fill="#1e1e3f" stroke="#374151" stroke-width="1"/>
  <text x="500" y="170" text-anchor="middle" fill="#94a3b8" font-family="Arial, sans-serif" font-size="10">Inactivos</text>
  
  <!-- Members list header -->
  <rect x="220" y="190" width="550" height="35" fill="#1e1e3f"/>
  <text x="240" y="210" fill="#94a3b8" font-family="Arial, sans-serif" font-size="11" font-weight="bold">NOMBRE</text>
  <text x="400" y="210" fill="#94a3b8" font-family="Arial, sans-serif" font-size="11" font-weight="bold">EMAIL</text>
  <text x="550" y="210" fill="#94a3b8" font-family="Arial, sans-serif" font-size="11" font-weight="bold">TELÉFONO</text>
  <text x="700" y="210" fill="#94a3b8" font-family="Arial, sans-serif" font-size="11" font-weight="bold">ESTADO</text>
  
  <!-- Member entries -->
  <rect x="220" y="225" width="550" height="40" fill="#0f0f23" stroke="#374151" stroke-width="0.5"/>
  <circle cx="245" cy="245" r="12" fill="#3b82f6"/>
  <text x="245" y="250" text-anchor="middle" fill="#ffffff" font-family="Arial, sans-serif" font-size="10" font-weight="bold">JR</text>
  <text x="270" y="240" fill="#e2e8f0" font-family="Arial, sans-serif" font-size="12" font-weight="bold">Juan Rodríguez</text>
  <text x="270" y="255" fill="#64748b" font-family="Arial, sans-serif" font-size="10">Miembro desde 2020</text>
  <text x="400" y="248" fill="#94a3b8" font-family="Arial, sans-serif" font-size="11">juan.rodriguez@email.com</text>
  <text x="550" y="248" fill="#94a3b8" font-family="Arial, sans-serif" font-size="11">+57 300 123 4567</text>
  <rect x="700" y="235" width="50" height="20" rx="10" fill="#10b981" fill-opacity="0.2"/>
  <text x="725" y="247" text-anchor="middle" fill="#10b981" font-family="Arial, sans-serif" font-size="9">Activo</text>
  
  <rect x="220" y="265" width="550" height="40" fill="#0f0f23" stroke="#374151" stroke-width="0.5"/>
  <circle cx="245" cy="285" r="12" fill="#f59e0b"/>
  <text x="245" y="290" text-anchor="middle" fill="#ffffff" font-family="Arial, sans-serif" font-size="10" font-weight="bold">AL</text>
  <text x="270" y="280" fill="#e2e8f0" font-family="Arial, sans-serif" font-size="12" font-weight="bold">Ana López</text>
  <text x="270" y="295" fill="#64748b" font-family="Arial, sans-serif" font-size="10">Miembro desde 2019</text>
  <text x="400" y="288" fill="#94a3b8" font-family="Arial, sans-serif" font-size="11">ana.lopez@email.com</text>
  <text x="550" y="288" fill="#94a3b8" font-family="Arial, sans-serif" font-size="11">+57 301 987 6543</text>
  <rect x="700" y="275" width="50" height="20" rx="10" fill="#10b981" fill-opacity="0.2"/>
  <text x="725" y="287" text-anchor="middle" fill="#10b981" font-family="Arial, sans-serif" font-size="9">Activo</text>
  
  <rect x="220" y="305" width="550" height="40" fill="#0f0f23" stroke="#374151" stroke-width="0.5"/>
  <circle cx="245" cy="325" r="12" fill="#8b5cf6"/>
  <text x="245" y="330" text-anchor="middle" fill="#ffffff" font-family="Arial, sans-serif" font-size="10" font-weight="bold">CM</text>
  <text x="270" y="320" fill="#e2e8f0" font-family="Arial, sans-serif" font-size="12" font-weight="bold">Carlos Martínez</text>
  <text x="270" y="335" fill="#64748b" font-family="Arial, sans-serif" font-size="10">Miembro desde 2021</text>
  <text x="400" y="328" fill="#94a3b8" font-family="Arial, sans-serif" font-size="11">carlos.martinez@email.com</text>
  <text x="550" y="328" fill="#94a3b8" font-family="Arial, sans-serif" font-size="11">+57 302 456 7890</text>
  <rect x="700" y="315" width="50" height="20" rx="10" fill="#ef4444" fill-opacity="0.2"/>
  <text x="725" y="327" text-anchor="middle" fill="#ef4444" font-family="Arial, sans-serif" font-size="9">Inactivo</text>
  
  <rect x="220" y="345" width="550" height="40" fill="#0f0f23" stroke="#374151" stroke-width="0.5"/>
  <circle cx="245" cy="365" r="12" fill="#06b6d4"/>
  <text x="245" y="370" text-anchor="middle" fill="#ffffff" font-family="Arial, sans-serif" font-size="10" font-weight="bold">MG</text>
  <text x="270" y="360" fill="#e2e8f0" font-family="Arial, sans-serif" font-size="12" font-weight="bold">María González</text>
  <text x="270" y="375" fill="#64748b" font-family="Arial, sans-serif" font-size="10">Miembro desde 2018</text>
  <text x="400" y="368" fill="#94a3b8" font-family="Arial, sans-serif" font-size="11">maria.gonzalez@email.com</text>
  <text x="550" y="368" fill="#94a3b8" font-family="Arial, sans-serif" font-size="11">+57 303 111 2233</text>
  <rect x="700" y="355" width="50" height="20" rx="10" fill="#10b981" fill-opacity="0.2"/>
  <text x="725" y="367" text-anchor="middle" fill="#10b981" font-family="Arial, sans-serif" font-size="9">Activo</text>
  
  <!-- Pagination -->
  <text x="220" y="410" fill="#64748b" font-family="Arial, sans-serif" font-size="12">Mostrando 4 de 127 miembros</text>
  <rect x="650" y="395" width="30" height="25" rx="4" fill="#1e1e3f" stroke="#374151" stroke-width="1"/>
  <text x="665" y="410" text-anchor="middle" fill="#94a3b8" font-family="Arial, sans-serif" font-size="11">‹</text>
  <rect x="690" y="395" width="30" height="25" rx="4" fill="#3b82f6"/>
  <text x="705" y="410" text-anchor="middle" fill="#ffffff" font-family="Arial, sans-serif" font-size="11">1</text>
  <rect x="730" y="395" width="30" height="25" rx="4" fill="#1e1e3f" stroke="#374151" stroke-width="1"/>
  <text x="745" y="410" text-anchor="middle" fill="#94a3b8" font-family="Arial, sans-serif" font-size="11">›</text>
</svg>