<svg width="800" height="450" viewBox="0 0 800 450" fill="none" xmlns="http://www.w3.org/2000/svg">
  <!-- Background -->
  <rect width="800" height="450" fill="#0f0f23"/>
  
  <!-- Header -->
  <rect width="800" height="60" fill="#1a1a40"/>
  <rect x="20" y="15" width="40" height="30" rx="8" fill="#6366f1"/>
  <text x="40" y="35" text-anchor="middle" fill="#ffffff" font-family="Arial, sans-serif" font-size="14" font-weight="bold">K</text>
  <text x="80" y="35" fill="#e2e8f0" font-family="Arial, sans-serif" font-size="18" font-weight="bold">Khesed-tek</text>
  <text x="200" y="28" fill="#94a3b8" font-family="Arial, sans-serif" font-size="12">Church Management Systems</text>
  
  <!-- User info -->
  <circle cx="720" cy="30" r="15" fill="#3b82f6"/>
  <text x="720" y="35" text-anchor="middle" fill="#ffffff" font-family="Arial, sans-serif" font-size="12" font-weight="bold">MG</text>
  <text x="650" y="25" fill="#e2e8f0" font-family="Arial, sans-serif" font-size="12">María González</text>
  <text x="650" y="40" fill="#64748b" font-family="Arial, sans-serif" font-size="10">Administrador de Iglesia</text>
  
  <!-- Sidebar -->
  <rect x="0" y="60" width="200" height="390" fill="#1e1e3f"/>
  
  <!-- Sidebar items -->
  <rect x="20" y="80" width="160" height="35" rx="4" fill="#6366f1" fill-opacity="0.2"/>
  <circle cx="35" cy="97" r="8" fill="#6366f1"/>
  <text x="55" y="102" fill="#e2e8f0" font-family="Arial, sans-serif" font-size="12">Panel de Control</text>
  
  <circle cx="35" cy="137" r="8" fill="#64748b"/>
  <text x="55" y="142" fill="#94a3b8" font-family="Arial, sans-serif" font-size="12">Miembros</text>
  
  <circle cx="35" cy="177" r="8" fill="#64748b"/>
  <text x="55" y="182" fill="#94a3b8" font-family="Arial, sans-serif" font-size="12">Voluntarios</text>
  
  <circle cx="35" cy="217" r="8" fill="#64748b"/>
  <text x="55" y="222" fill="#94a3b8" font-family="Arial, sans-serif" font-size="12">Dones Espirituales</text>
  
  <circle cx="35" cy="257" r="8" fill="#64748b"/>
  <text x="55" y="262" fill="#94a3b8" font-family="Arial, sans-serif" font-size="12">Asistente de Sermones</text>
  
  <!-- Main content -->
  <rect x="200" y="60" width="600" height="390" fill="#0f0f23"/>
  
  <!-- Page title -->
  <text x="220" y="100" fill="#e2e8f0" font-family="Arial, sans-serif" font-size="24" font-weight="bold">Perspectivas Pastorales</text>
  <text x="220" y="125" fill="#64748b" font-family="Arial, sans-serif" font-size="14">Inteligencia ministerial avanzada y perspectivas estratégicas para el crecimiento espiritual y organizacional</text>
  
  <!-- Action buttons -->
  <rect x="1135" y="80" width="120" height="30" rx="15" fill="#10b981"/>
  <text x="1195" y="100" text-anchor="middle" fill="#ffffff" font-family="Arial, sans-serif" font-size="11" font-weight="bold">Actualizar</text>
  
  <rect x="1270" y="80" width="140" height="30" rx="15" fill="#1f2937"/>
  <text x="1340" y="100" text-anchor="middle" fill="#e2e8f0" font-family="Arial, sans-serif" font-size="11">+ Nuevo Dashboard</text>
  
  <!-- Stats cards -->
  <rect x="220" y="160" width="170" height="100" rx="8" fill="#1e1e3f"/>
  <text x="240" y="185" fill="#10b981" font-family="Arial, sans-serif" font-size="14">Tendencias de Donaciones</text>
  <text x="240" y="210" fill="#e2e8f0" font-family="Arial, sans-serif" font-size="12">$8M</text>
  <text x="240" y="230" fill="#10b981" font-family="Arial, sans-serif" font-size="24" font-weight="bold">Adultos 65%</text>
  <text x="240" y="250" fill="#64748b" font-family="Arial, sans-serif" font-size="10">vs. mes anterior</text>
  
  <rect x="410" y="160" width="170" height="100" rx="8" fill="#1e1e3f"/>
  <text x="430" y="185" fill="#3b82f6" font-family="Arial, sans-serif" font-size="14">Distribución de Membresía</text>
  <text x="430" y="210" fill="#e2e8f0" font-family="Arial, sans-serif" font-size="12">Niños 11%</text>
  <text x="430" y="230" fill="#3b82f6" font-family="Arial, sans-serif" font-size="24" font-weight="bold">Jóvenes 24%</text>
  <text x="430" y="250" fill="#64748b" font-family="Arial, sans-serif" font-size="10">Alta prioridad: 7</text>
  
  <rect x="600" y="160" width="170" height="100" rx="8" fill="#1e1e3f"/>
  <text x="620" y="185" fill="#f59e0b" font-family="Arial, sans-serif" font-size="14">Asistencia a Eventos</text>
  <text x="620" y="210" fill="#e2e8f0" font-family="Arial, sans-serif" font-size="12">1400</text>
  <text x="620" y="230" fill="#f59e0b" font-family="Arial, sans-serif" font-size="24" font-weight="bold">Métricas de Crecimiento</text>
  <text x="620" y="250" fill="#64748b" font-family="Arial, sans-serif" font-size="10">+15.3% Donaciones</text>
  
  <!-- Chart area -->
  <rect x="220" y="280" width="350" height="150" rx="8" fill="#1e1e3f"/>
  <text x="240" y="305" fill="#e2e8f0" font-family="Arial, sans-serif" font-size="16" font-weight="bold">Tendencias de Donaciones</text>
  
  <!-- Simple chart representation -->
  <rect x="240" y="320" width="30" height="60" fill="#10b981" fill-opacity="0.7"/>
  <rect x="280" y="340" width="30" height="40" fill="#10b981" fill-opacity="0.7"/>
  <rect x="320" y="315" width="30" height="65" fill="#10b981" fill-opacity="0.7"/>
  <rect x="360" y="325" width="30" height="55" fill="#10b981" fill-opacity="0.7"/>
  <rect x="400" y="310" width="30" height="70" fill="#10b981" fill-opacity="0.7"/>
  <rect x="440" y="305" width="30" height="75" fill="#10b981"/>
  
  <!-- Chart labels -->
  <text x="255" y="395" text-anchor="middle" fill="#64748b" font-family="Arial, sans-serif" font-size="9">Ene</text>
  <text x="295" y="395" text-anchor="middle" fill="#64748b" font-family="Arial, sans-serif" font-size="9">Feb</text>
  <text x="335" y="395" text-anchor="middle" fill="#64748b" font-family="Arial, sans-serif" font-size="9">Mar</text>
  <text x="375" y="395" text-anchor="middle" fill="#64748b" font-family="Arial, sans-serif" font-size="9">Abr</text>
  <text x="415" y="395" text-anchor="middle" fill="#64748b" font-family="Arial, sans-serif" font-size="9">May</text>
  <text x="455" y="395" text-anchor="middle" fill="#64748b" font-family="Arial, sans-serif" font-size="9">Jun</text>
  
  <!-- Right panel -->
  <rect x="590" y="280" width="180" height="150" rx="8" fill="#1e1e3f"/>
  <text x="610" y="305" fill="#e2e8f0" font-family="Arial, sans-serif" font-size="16" font-weight="bold">Métricas de Crecimiento</text>
  
  <text x="610" y="330" fill="#10b981" font-family="Arial, sans-serif" font-size="12">Crecimiento de Donaciones</text>
  <text x="610" y="345" fill="#e2e8f0" font-family="Arial, sans-serif" font-size="20" font-weight="bold">+15.3%</text>
  
  <text x="610" y="365" fill="#3b82f6" font-family="Arial, sans-serif" font-size="12">Crecimiento de Miembros</text>
  <text x="610" y="380" fill="#e2e8f0" font-family="Arial, sans-serif" font-size="20" font-weight="bold">+8.7%</text>
  
  <text x="610" y="400" fill="#f59e0b" font-family="Arial, sans-serif" font-size="12">Asistencia a Eventos</text>
  <text x="610" y="415" fill="#e2e8f0" font-family="Arial, sans-serif" font-size="20" font-weight="bold">+22.1%</text>
</svg>